<svg xmlns="http://www.w3.org/2000/svg" viewBox="0 0 478.39 482.21"><defs><style>.cls-1{fill:#25aefd;}</style></defs><title>logo</title><g id="katman_2" data-name="katman 2"><g id="katman_1-2" data-name="katman 1"><g id="katman_2-2" data-name="katman 2"><g id="katman_1-2-2" data-name="katman 1-2"><path class="cls-1" d="M12.91,438.09c-43-22.57,97.34-49.76,127.12-53.9,54.07-8.73,108.21-9.37,162.4-6.75,41.54,2.49,82.07,8.72,121.38,19.48,15.32,4.43,28.35,9.83,38,16.64q15.16,13,4.41,23.47l-3.3-8.68c-1.84-4.84-6.39-7.85-11.7-10.34a20.22,20.22,0,0,0-13.78,1.1c-2.86,1.65-9.6,8.25-7.17,12.16,3.51-4.93,9.63-6.32,14.68-2.56,5,3.56,6.17,8,1.67,13.72q-6.4,7-16.38,5.19a100.06,100.06,0,0,1-37.48-19.19l-15.19-11.85c-17.5-13.66-34.4-18.42-51-18.68-9.41-.88-18.94,1.47-28.54,5.89-6.92,3.64-9.54,8.09-11.85,13.88,4.41-2.49,7.9-2.55,12.35-.92,3.59,2.78,6.8,5.91,7.06,10.14.59,7.17-4.88,10.73-12.83,12.17a31.41,31.41,0,0,1-15.47-.63l-14-6.06c-7.7-4.83-17.46-5.7-28.07-5q-11.39,2.24-20.77,11.43c-5.29,6.78-8.29,13.93-8.68,22,.33,3.72.29,6.34,1.62,7.34,1.54-3.59,3-7.15,9.36-12.09,5.91-5,13.18-6.53,21.2-6.2,6.85,1,12.15,4.82,15.57,12q3.79,11.67-1,13.36a19.69,19.69,0,0,0-8-11c-5.68-4.3-11.79-4.24-18.18-1.18-5.3,3.38-8,8-7.85,14.06,9-6.54,15.78-3.86,21,5.12a866.64,866.64,0,0,1-109.69-10.6c-22.65-3.2-47-10.1-73.6-16.71-27.06-6.72-43.81-16.07-43.29-16.81Zm399.44,23.58h0l-2-.62c-8-2.14-15.66-6.41-23.17-11.65l-13.43-9.94a23.21,23.21,0,0,0-16.08-3.91c-6.22.64-15.67,8.72-11.46,15.59,13.17-11.12,23,5.91,10.17,10.74-3.66,1.53-9.11-1.73-14.4-6.64-9.28-8.62-20.61-13-33.12-10.13a26.73,26.73,0,0,0-13.07,8.06q-6.88,7.23-3,13.58c2.47-3.76,5.6-6.57,10.17-7.26s8.36-.43,11,2.41c5,6.33-.47,12-6.28,14.88-.8,1.1-.8,1.64,0,1.63a815.15,815.15,0,0,0,104.57-16.75Z"/><path class="cls-1" d="M477.95,398.41c1.16,48.59-90.75-61-108.83-85-33.87-43-60.72-90.06-84.73-138.71-18-37.53-32.21-76-41.88-115.58-3.56-15.55-5.17-29.56-3.92-41.33q4-19.55,18.38-15.25l-6,7.1c-3.34,4-3.76,9.4-3.36,15.24a20.22,20.22,0,0,0,7.65,11.51c2.83,1.7,11.87,4.39,14.12.37-6-.67-10.21-5.35-9.36-11.59.68-6.11,4-9.28,11.19-8.13q9.25,2.19,12.49,11.8A100.06,100.06,0,0,1,285.13,71l-3,19c-3.45,21.93.59,39,8.43,53.66,3.8,8.65,10.48,15.84,19,22.1,6.54,4.28,11.7,4.42,17.89,3.62-4.32-2.65-6.07-5.67-6.8-10.36.68-4.49,1.87-8.82,5.44-11.1,6-4,11.75-.94,16.87,5.31a31.41,31.41,0,0,1,7,13.83l1.48,15.16c-.49,9.08,3.49,18,9.29,26.95q7.48,8.83,20,12.61c8.5,1.34,16.21.48,23.41-3.07,3.09-2.09,5.4-3.33,5.63-5-3.88.4-7.71.85-15.11-2.31-7.19-2.76-12.1-8.35-15.71-15.52-2.45-6.48-1.69-13,3-19.46q8.37-9,12.18-5.59a19.69,19.69,0,0,0-5.68,12.34c-1,7.06,2,12.36,7.79,16.47,5.52,3,10.89,3.08,16.1,0-10.1-4.73-11-11.93-5.7-20.82a866.64,866.64,0,0,1,43.86,101.06c8.2,21.35,14,46,21.11,72.46,7.26,26.92,7.22,46.1,6.32,46ZM304.68,37.73h0l.43,2c2,8,2,16.8,1.06,25.91q-1.08,8.29-2.17,16.57a23.21,23.21,0,0,0,4.39,16c3.58,5.13,15.23,9.46,19.2,2.45-16.11-6.12-6-23,4.46-14.1,3.12,2.46,2.91,8.8,1.18,15.81-3,12.3-1.4,24.35,7.22,33.87a26.73,26.73,0,0,0,13.39,7.51q9.66,2.51,13.31-4c-4.49-.33-8.46-1.71-11.28-5.37s-4.44-7.1-3.25-10.82c3.09-7.47,10.72-5.41,16.06-1.73,1.35.17,1.82-.1,1.43-.8a815.15,815.15,0,0,0-65.41-83.3Z"/><path class="cls-1" d="M216.35,3.52c40.44-27-3,109.28-13.62,137.4-18.26,51.64-43.64,99.47-71.92,145.76-22.09,35.27-47,67.85-75.28,97.19C44.3,395.19,33.32,404,22.71,409.28Q4.06,416.37,0,401.9l9.2,1.26c5.13.7,10-1.85,14.68-5.31a20.22,20.22,0,0,0,5.64-12.62c-.08-3.3-2.64-12.38-7.24-12.13,2.65,5.45.93,11.49-4.79,14.11-5.53,2.69-10,1.58-12.85-5.11q-3.1-9,3.29-16.86a100.06,100.06,0,0,1,34.81-23.7l17.69-7.65c20.38-8.81,32.66-21.36,40.84-35.82,5.28-7.84,7.78-17.33,8.51-27.87.12-7.82-2.52-12.25-6.5-17.05.07,5.07-1.55,8.16-5.12,11.28-4.16,1.82-8.45,3.14-12.28,1.34-6.58-2.92-7.08-9.42-4.53-17.1a31.41,31.41,0,0,1,8-13.28l12-9.36c7.93-4.44,13.37-12.59,17.8-22.26q3.49-11.07-.08-23.7c-3.41-7.9-8.26-14-15.11-18.14-3.42-1.49-5.7-2.79-7.21-2.1,2.41,3.07,4.84,6.06,6.12,14,1.51,7.56-.59,14.69-4.72,21.58-4.16,5.54-10.05,8.35-18,7.9Q68,201,68.86,196a19.69,19.69,0,0,0,13.47-1.8c6.5-2.92,9.37-8.31,9.75-15.39-.42-6.27-3.22-10.85-8.58-13.62,1.41,11.06-4.18,15.7-14.55,16a866.64,866.64,0,0,1,62-91.1c13.66-18.35,31.38-36.39,49.95-56.58C199.77,13,216,2.77,216.4,3.58ZM4.21,342.78h0l1.5-1.45c5.71-6,13.13-10.67,21.33-14.75l15.16-7a23.21,23.21,0,0,0,11.14-12.24c2.42-5.77-.14-17.93-8.19-17.54,3.45,16.89-16.21,17.35-14.3,3.78.41-4,5.88-7.16,12.73-9.45,12-4,21.33-11.84,24.77-24.21a26.73,26.73,0,0,0-.81-15.33q-3-9.5-10.5-9.1c2.12,4,3.08,8.06,1.5,12.4s-3.62,7.54-7.41,8.53c-8,1.38-10.3-6.17-10-12.64-.58-1.23-1.06-1.49-1.43-.78A815.15,815.15,0,0,0,4.21,342.78Z"/><path class="cls-1" d="M226.21,304.19c-11.68-6.78-13.06-19-10.82-28.22s15.18-16.7,24.44-14.47a37.06,37.06,0,0,1,11.38,5.91,1.71,1.71,0,0,0,2.3-.11l12.7-12.76a1.72,1.72,0,0,0,0-2.43l0,0a42,42,0,0,0-69.76,22.48C192,296.47,206,317.36,227,325.92c13.55,5.54,34.59,4.9,49.23-5,15.8-10.67,37.7-26.69,31.34-66.81-3.72-23.45-24-44.19-49.49-50.35a80.17,80.17,0,1,0-37.58,155.88c12,2.9,25.78,4,37.26,1.63a1.71,1.71,0,0,0,1.35-1.81l-1.16-15.21a1.71,1.71,0,0,0-1.84-1.57l-.16,0c-8.63,1.45-21.06-.78-29.65-2.85-30.46-7.34-49.49-41-42.15-71.44s43.56-56.89,72.14-44.06c25.18,11.31,41.82,40.27,25,63.64C261,316.18,240.27,312.35,226.21,304.19Z"/></g></g></g></g></svg>